<svg viewBox="0 0 1024 1024" xmlns="http://www.w3.org/2000/svg" width="128" height="128">
  <path
    d="M887.466667 199.111111c-11.377778-11.377778-28.444444-17.066667-45.511111-17.066667h-34.133334c-28.444444 0-79.644444 0-130.844444-17.066666-62.577778-11.377778-142.222222-85.333333-159.288889-102.4-11.377778-5.688889-22.755556-11.377778-39.822222-11.377778-11.377778 0-22.755556 5.688889-34.133334 11.377778 0 0-79.644444 79.644444-159.288889 102.4-51.2 11.377778-102.4 17.066667-130.844444 17.066666h-34.133333c-17.066667 0-34.133333 5.688889-45.511111 17.066667-11.377778 11.377778-17.066667 28.444444-17.066667 45.511111V398.222222c0 568.888889 398.222222 603.022222 415.288889 608.711111h22.755555C512 1001.244444 910.222222 967.111111 910.222222 398.222222V244.622222c0-17.066667-11.377778-34.133333-22.755555-45.511111zM739.555556 420.977778L466.488889 682.666667l-5.688889 5.688889c-5.688889 5.688889-17.066667 11.377778-28.444444 11.377777s-22.755556-5.688889-28.444445-11.377777L398.222222 682.666667 250.311111 540.444444c-11.377778-17.066667-11.377778-39.822222 0-56.888888 17.066667-17.066667 39.822222-17.066667 56.888889 0l125.155556 119.466666 256-238.933333c17.066667-11.377778 39.822222-11.377778 56.888888 0 11.377778 17.066667 11.377778 39.822222-5.688888 56.888889z"/>
</svg>
