<svg viewBox="0 0 1024 1024" xmlns="http://www.w3.org/2000/svg" width="128" height="128">
  <path
    d="M511.999488 1015.155565c-261.377986 0-458.483132-91.492784-458.483132-212.81699L53.516356 221.661426C53.516356 100.337219 250.621503 8.844435 511.999488 8.844435c261.377986 0 458.482109 91.493807 458.482109 212.81699l0 580.678172C970.481597 923.662781 773.377474 1015.155565 511.999488 1015.155565zM121.790322 802.338574c0 82.728166 206.010981 144.534837 390.209166 144.534837s390.216329-61.806671 390.216329-144.534837l0-86.776366c-81.674161 61.255109-227.660046 98.586342-390.216329 98.586342-162.54912 0-308.531935-37.33021-390.209166-98.586342L121.790322 802.338574zM121.790322 601.329515c0 82.727143 206.010981 144.535861 390.209166 144.535861s390.216329-61.808718 390.216329-144.535861l0-86.776366c-81.674161 61.255109-227.660046 98.586342-390.216329 98.586342-162.54912 0-308.531935-37.33021-390.209166-98.586342L121.790322 601.329515zM121.790322 400.337851c0 82.708723 206.010981 144.517441 390.209166 144.517441s390.216329-61.807694 390.216329-144.517441l0-64.460104c-81.684394 61.255109-227.66721 98.600669-390.216329 98.600669-162.54912 0-308.531935-37.329187-390.209166-98.585319L121.790322 400.337851zM511.999488 77.125565c-184.198186 0-390.209166 61.808718-390.209166 144.534837 0 82.727143 206.010981 144.535861 390.209166 144.535861s390.216329-61.808718 390.216329-144.535861C902.215818 138.935306 696.197674 77.125565 511.999488 77.125565z"/>
</svg>
