<svg viewBox="0 0 1024 1024" xmlns="http://www.w3.org/2000/svg" width="128" height="128">
  <path
    d="M514.048 56.32h441.344c50.688 0 68.096 17.408 68.096 67.584v759.808c0 51.2-16.896 68.096-67.072 68.096h-890.88C18.432 952.32 0 934.4 0 887.296V119.808C0 74.24 18.944 56.832 65.024 56.32h449.024zM321.536 713.216H67.072V885.76h254.464v-172.544z m316.928 173.568v-173.056H385.536v173.056h252.928z m64-1.536h254.464v-172.032h-254.464v172.032zM67.584 481.28v171.008h252.928V481.28H67.584z m634.88 173.568c82.944 0 162.816 0 243.2-0.512 4.096 0 12.288-7.68 12.288-11.776 1.024-53.248 0.512-107.008 0.512-160.256h-256v172.544z m-317.952-2.048h254.464V482.304H384.512v170.496z m-63.488-230.4V250.368H65.536c0 53.76-0.512 104.96 0.512 156.16 0 5.632 10.752 15.36 16.384 15.36 78.336 1.024 157.184 0.512 238.592 0.512z m64-2.048h252.928V249.856H385.024v170.496z m571.392 0.512V249.856h-253.44v171.008h253.44z"/>
</svg>
